<?xml version="1.0" encoding="utf-8"?>
<!-- Svg Vector Icons : http://www.onlinewebfonts.com/icon -->
<!DOCTYPE svg PUBLIC "-//W3C//DTD SVG 1.1//EN" "http://www.w3.org/Graphics/SVG/1.1/DTD/svg11.dtd">
<svg version="1.1" xmlns="http://www.w3.org/2000/svg" xmlns:xlink="http://www.w3.org/1999/xlink" x="0px" y="0px" viewBox="0 0 1000 1000" enable-background="new 0 0 1000 1000" xml:space="preserve">
<metadata> Svg Vector Icons : http://www.onlinewebfonts.com/icon </metadata>
<g> 
    <g transform="translate(0.000000,511.000000) scale(0.100000,-0.100000)">
        <path d="M100,4334.8c0-7.2,564.1-989.6,1252.5-2182.3c688.4-1192.7,1785.5-3093,2438-4223.6C4443.1-3201.7,4988-4126.7,5000-4126.7s253.4,399.2,533,884.4c482.8,836.6,1130.6,1960,3391.8,5872.8c535.4,929.8,975.2,1697.1,975.2,1704.2s-2203.8,12-4900,12C2306.2,4346.7,100,4341.9,100,4334.8z M9190.1,3849.5C8162.3,2056.9,5009.6-3395.3,5000-3395.3c-7.2,0-303.6,506.7-659.7,1128.2c-511.5,886.8-3540,6135.8-3587.8,6214.6c-4.8,9.6,1905,16.7,4247.5,16.7h4254.6L9190.1,3849.5z" style="fill:transparent;stroke:rgba(0, 0, 0, 0.616);stroke-width:490" />
    </g>
</g>
</svg>
